<?xml version="1.0" ?><!DOCTYPE svg  PUBLIC '-//W3C//DTD SVG 1.1//EN'  'http://www.w3.org/Graphics/SVG/1.1/DTD/svg11.dtd'><svg enable-background="new 0 0 32 32" height="32px" id="Layer_1" version="1.1" viewBox="0 0 32 32" width="32px" xml:space="preserve" xmlns="http://www.w3.org/2000/svg" xmlns:xlink="http://www.w3.org/1999/xlink"><g id="hardware_x2C__processor_x2C__microprocessor"><g><g><g><path d="M25,27H8c-0.133,0-0.26-0.053-0.354-0.146l-1.5-1.5C6.053,25.26,6,25.133,6,25V9.5      C6,9.223,6.224,9,6.5,9S7,9.223,7,9.5v15.293L8.207,26h16.586L26,24.793V8.207L24.793,7H8.207L7.291,7.915      c-0.195,0.195-0.512,0.195-0.707,0c-0.195-0.194-0.195-0.511,0-0.706l1.063-1.063C7.74,6.053,7.867,6,8,6h17      c0.133,0,0.26,0.053,0.354,0.146l1.5,1.5C26.947,7.74,27,7.867,27,8v17c0,0.133-0.053,0.26-0.146,0.354l-1.5,1.5      C25.26,26.947,25.133,27,25,27z" fill="#fff"/></g></g><g><g><path d="M4.5,24h-2C2.224,24,2,24.224,2,24.5S2.224,25,2.5,25h2C4.776,25,5,24.776,5,24.5S4.776,24,4.5,24z" fill="#fff"/></g><g><path d="M4.5,22h-2C2.224,22,2,22.224,2,22.5S2.224,23,2.5,23h2C4.776,23,5,22.776,5,22.5S4.776,22,4.5,22z" fill="#fff"/></g><g><path d="M4.5,20h-2C2.224,20,2,20.224,2,20.5S2.224,21,2.5,21h2C4.776,21,5,20.776,5,20.5S4.776,20,4.5,20z" fill="#fff"/></g><g><path d="M4.5,18h-2C2.224,18,2,18.224,2,18.5S2.224,19,2.5,19h2C4.776,19,5,18.776,5,18.5S4.776,18,4.5,18z" fill="#fff"/></g><g><path d="M4.5,16h-2C2.224,16,2,16.224,2,16.5S2.224,17,2.5,17h2C4.776,17,5,16.776,5,16.5S4.776,16,4.5,16z" fill="#fff"/></g><g><path d="M4.5,14h-2C2.224,14,2,14.224,2,14.5S2.224,15,2.5,15h2C4.776,15,5,14.776,5,14.5S4.776,14,4.5,14z" fill="#fff"/></g><g><path d="M4.5,12h-2C2.224,12,2,12.224,2,12.5S2.224,13,2.5,13h2C4.776,13,5,12.776,5,12.5S4.776,12,4.5,12z" fill="#fff"/></g><g><path d="M4.5,10h-2C2.224,10,2,10.224,2,10.5S2.224,11,2.5,11h2C4.776,11,5,10.776,5,10.5S4.776,10,4.5,10z" fill="#fff"/></g><g><path d="M4.5,8h-2C2.224,8,2,8.224,2,8.5S2.224,9,2.5,9h2C4.776,9,5,8.776,5,8.5S4.776,8,4.5,8z" fill="#fff"/></g><g><path d="M30.5,24h-2c-0.276,0-0.5,0.224-0.5,0.5s0.224,0.5,0.5,0.5h2c0.276,0,0.5-0.224,0.5-0.5      S30.776,24,30.5,24z" fill="#fff"/></g><g><path d="M30.5,22h-2c-0.276,0-0.5,0.224-0.5,0.5s0.224,0.5,0.5,0.5h2c0.276,0,0.5-0.224,0.5-0.5      S30.776,22,30.5,22z" fill="#fff"/></g><g><path d="M30.5,20h-2c-0.276,0-0.5,0.224-0.5,0.5s0.224,0.5,0.5,0.5h2c0.276,0,0.5-0.224,0.5-0.5      S30.776,20,30.5,20z" fill="#fff"/></g><g><path d="M30.5,18h-2c-0.276,0-0.5,0.224-0.5,0.5s0.224,0.5,0.5,0.5h2c0.276,0,0.5-0.224,0.5-0.5      S30.776,18,30.5,18z" fill="#fff"/></g><g><path d="M30.5,16h-2c-0.276,0-0.5,0.224-0.5,0.5s0.224,0.5,0.5,0.5h2c0.276,0,0.5-0.224,0.5-0.5      S30.776,16,30.5,16z" fill="#fff"/></g><g><path d="M30.5,14h-2c-0.276,0-0.5,0.224-0.5,0.5s0.224,0.5,0.5,0.5h2c0.276,0,0.5-0.224,0.5-0.5      S30.776,14,30.5,14z" fill="#fff"/></g><g><path d="M30.5,12h-2c-0.276,0-0.5,0.224-0.5,0.5s0.224,0.5,0.5,0.5h2c0.276,0,0.5-0.224,0.5-0.5      S30.776,12,30.5,12z" fill="#fff"/></g><g><path d="M30.5,10h-2c-0.276,0-0.5,0.224-0.5,0.5s0.224,0.5,0.5,0.5h2c0.276,0,0.5-0.224,0.5-0.5      S30.776,10,30.5,10z" fill="#fff"/></g><g><path d="M28.5,9h2C30.776,9,31,8.776,31,8.5S30.776,8,30.5,8h-2C28.224,8,28,8.224,28,8.5S28.224,9,28.5,9z" fill="#fff"/></g><g><path d="M24.5,28c-0.276,0-0.5,0.224-0.5,0.5v2c0,0.276,0.224,0.5,0.5,0.5s0.5-0.224,0.5-0.5v-2      C25,28.224,24.776,28,24.5,28z" fill="#fff"/></g><g><path d="M22.5,28c-0.276,0-0.5,0.224-0.5,0.5v2c0,0.276,0.224,0.5,0.5,0.5s0.5-0.224,0.5-0.5v-2      C23,28.224,22.776,28,22.5,28z" fill="#fff"/></g><g><path d="M20.5,28c-0.276,0-0.5,0.224-0.5,0.5v2c0,0.276,0.224,0.5,0.5,0.5s0.5-0.224,0.5-0.5v-2      C21,28.224,20.776,28,20.5,28z" fill="#fff"/></g><g><path d="M18.5,28c-0.276,0-0.5,0.224-0.5,0.5v2c0,0.276,0.224,0.5,0.5,0.5s0.5-0.224,0.5-0.5v-2      C19,28.224,18.776,28,18.5,28z" fill="#fff"/></g><g><path d="M16.5,28c-0.276,0-0.5,0.224-0.5,0.5v2c0,0.276,0.224,0.5,0.5,0.5s0.5-0.224,0.5-0.5v-2      C17,28.224,16.776,28,16.5,28z" fill="#fff"/></g><g><path d="M14.5,28c-0.276,0-0.5,0.224-0.5,0.5v2c0,0.276,0.224,0.5,0.5,0.5s0.5-0.224,0.5-0.5v-2      C15,28.224,14.776,28,14.5,28z" fill="#fff"/></g><g><path d="M12.5,28c-0.276,0-0.5,0.224-0.5,0.5v2c0,0.276,0.224,0.5,0.5,0.5s0.5-0.224,0.5-0.5v-2      C13,28.224,12.776,28,12.5,28z" fill="#fff"/></g><g><path d="M10.5,28c-0.276,0-0.5,0.224-0.5,0.5v2c0,0.276,0.224,0.5,0.5,0.5s0.5-0.224,0.5-0.5v-2      C11,28.224,10.776,28,10.5,28z" fill="#fff"/></g><g><path d="M8.5,28C8.224,28,8,28.224,8,28.5v2C8,30.776,8.224,31,8.5,31S9,30.776,9,30.5v-2      C9,28.224,8.776,28,8.5,28z" fill="#fff"/></g><g><path d="M24.5,2C24.224,2,24,2.224,24,2.5v2C24,4.776,24.224,5,24.5,5S25,4.776,25,4.5v-2      C25,2.224,24.776,2,24.5,2z" fill="#fff"/></g><g><path d="M22.5,2C22.224,2,22,2.224,22,2.5v2C22,4.776,22.224,5,22.5,5S23,4.776,23,4.5v-2      C23,2.224,22.776,2,22.5,2z" fill="#fff"/></g><g><path d="M20.5,2C20.224,2,20,2.224,20,2.5v2C20,4.776,20.224,5,20.5,5S21,4.776,21,4.5v-2      C21,2.224,20.776,2,20.5,2z" fill="#fff"/></g><g><path d="M18.5,2C18.224,2,18,2.224,18,2.5v2C18,4.776,18.224,5,18.5,5S19,4.776,19,4.5v-2      C19,2.224,18.776,2,18.5,2z" fill="#fff"/></g><g><path d="M16.5,2C16.224,2,16,2.224,16,2.5v2C16,4.776,16.224,5,16.5,5S17,4.776,17,4.5v-2      C17,2.224,16.776,2,16.5,2z" fill="#fff"/></g><g><path d="M14.5,2C14.224,2,14,2.224,14,2.5v2C14,4.776,14.224,5,14.5,5S15,4.776,15,4.5v-2      C15,2.224,14.776,2,14.5,2z" fill="#fff"/></g><g><path d="M12.5,2C12.224,2,12,2.224,12,2.5v2C12,4.776,12.224,5,12.5,5S13,4.776,13,4.5v-2      C13,2.224,12.776,2,12.5,2z" fill="#fff"/></g><g><path d="M10.5,2C10.224,2,10,2.224,10,2.5v2C10,4.776,10.224,5,10.5,5S11,4.776,11,4.5v-2      C11,2.224,10.776,2,10.5,2z" fill="#fff"/></g><g><path d="M8.5,2C8.224,2,8,2.224,8,2.5v2C8,4.776,8.224,5,8.5,5S9,4.776,9,4.5v-2C9,2.224,8.776,2,8.5,2z" fill="#fff"/></g></g></g><g><g><g><circle cx="20.5" cy="20.5" fill="#fff" r="0.5"/></g><g><circle cx="18.5" cy="20.5" fill="#fff" r="0.5"/></g><g><circle cx="16.5" cy="20.5" fill="#fff" r="0.5"/></g><g><circle cx="14.5" cy="20.5" fill="#fff" r="0.5"/></g><g><circle cx="12.5" cy="20.5" fill="#fff" r="0.5"/></g></g><g><g><circle cx="20.5" cy="18.5" fill="#fff" r="0.5"/></g><g><circle cx="18.5" cy="18.5" fill="#fff" r="0.5"/></g><g><circle cx="16.5" cy="18.5" fill="#fff" r="0.5"/></g><g><circle cx="14.5" cy="18.5" fill="#fff" r="0.5"/></g><g><circle cx="12.5" cy="18.5" fill="#fff" r="0.5"/></g></g><g><g><circle cx="20.5" cy="16.5" fill="#fff" r="0.5"/></g><g><circle cx="18.5" cy="16.5" fill="#fff" r="0.5"/></g><g><circle cx="16.5" cy="16.5" fill="#fff" r="0.5"/></g><g><circle cx="14.5" cy="16.5" fill="#fff" r="0.5"/></g><g><circle cx="12.5" cy="16.5" fill="#fff" r="0.5"/></g></g><g><g><circle cx="20.5" cy="14.5" fill="#fff" r="0.5"/></g><g><circle cx="18.5" cy="14.5" fill="#fff" r="0.5"/></g><g><circle cx="16.5" cy="14.5" fill="#fff" r="0.5"/></g><g><circle cx="14.5" cy="14.5" fill="#fff" r="0.5"/></g><g><circle cx="12.5" cy="14.5" fill="#fff" r="0.5"/></g></g><g><g><circle cx="20.5" cy="12.5" fill="#fff" r="0.5"/></g><g><circle cx="18.5" cy="12.5" fill="#fff" r="0.5"/></g><g><circle cx="16.5" cy="12.5" fill="#fff" r="0.5"/></g><g><circle cx="14.5" cy="12.5" fill="#fff" r="0.5"/></g><g><circle cx="12.5" cy="12.5" fill="#fff" r="0.5"/></g></g></g></g></svg>